<svg width="101" height="54" viewBox="0 0 101 54" fill="none" xmlns="http://www.w3.org/2000/svg">
<g clip-path="url(#clip0_12_1385)">
<g clip-path="url(#clip1_12_1385)">
<path d="M43.8458 43.4433C55.5971 31.7002 57.7601 14.8224 48.6769 5.74554C39.5937 -3.33129 22.704 -1.16987 10.9527 10.5732C-0.798633 22.3163 -2.96157 39.1942 6.12162 48.271C15.2048 57.3478 32.0945 55.1864 43.8458 43.4433Z" fill="#D42627"/>
<path d="M27.3977 45.3277C40.4964 45.3277 51.115 37.1281 51.115 27.0134C51.115 16.8988 40.4964 8.69922 27.3977 8.69922C14.2989 8.69922 3.6803 16.8988 3.6803 27.0134C3.6803 37.1281 14.2989 45.3277 27.3977 45.3277Z" fill="#9D1D21"/>
<path d="M45.8127 33.7033C50.6044 20.5504 46.2454 6.88896 36.0766 3.18957C25.9077 -0.509816 13.7798 7.15376 8.98815 20.3067C4.19645 33.4595 8.55547 47.121 18.7243 50.8204C28.8931 54.5198 41.021 46.8562 45.8127 33.7033Z" fill="#B82025"/>
<path d="M12.6821 31.0129C11.7927 31.0129 11.0515 30.784 10.4316 30.3396C9.82522 29.8952 9.50181 29.2757 9.47485 28.4947H11.4962C11.5232 28.8179 11.6445 29.0603 11.887 29.2219C12.1296 29.3835 12.3856 29.4508 12.6956 29.4508C12.9651 29.4508 13.2076 29.3969 13.4233 29.2757C13.6254 29.1545 13.7332 28.9929 13.7332 28.7775C13.7332 28.6159 13.6658 28.4677 13.5311 28.3465C13.3963 28.2119 13.2481 28.1176 13.0864 28.0503C12.9247 27.983 12.6686 27.8887 12.3317 27.7675C11.8601 27.6059 11.4962 27.4443 11.1998 27.3096C10.9168 27.175 10.6338 26.9999 10.3777 26.8114C10.1217 26.6094 9.93303 26.3939 9.81175 26.1381C9.69047 25.8822 9.63656 25.5859 9.63656 25.2358C9.63656 24.549 9.90608 24.0104 10.4451 23.6199C10.9841 23.2293 11.7118 23.0273 12.6012 23.0273C13.4502 23.0273 14.1509 23.2293 14.7169 23.6333C15.2829 24.0373 15.5794 24.6164 15.6063 25.384H13.6119C13.585 25.1146 13.4772 24.8992 13.2885 24.751C13.0998 24.6029 12.8573 24.5221 12.5743 24.5221C12.3182 24.5221 12.0892 24.576 11.887 24.6837C11.6984 24.7914 11.5906 24.953 11.5906 25.1685C11.5906 25.3166 11.6579 25.4513 11.7927 25.5725C11.9274 25.6937 12.0487 25.7745 12.1565 25.8149C12.2643 25.8553 12.4934 25.9361 12.8034 26.0438C12.8842 26.0707 12.9516 26.0977 13.0055 26.1111C13.4906 26.2727 13.868 26.4209 14.1644 26.5421C14.4609 26.6767 14.7304 26.8383 14.9864 27.0268C15.2425 27.2154 15.4311 27.4443 15.539 27.7136C15.6468 27.983 15.7007 28.2927 15.7007 28.6563C15.7007 29.37 15.4177 29.9356 14.8652 30.353C14.3261 30.7974 13.585 31.0129 12.6821 31.0129Z" fill="white"/>
<path d="M22.3038 30.8512L21.7243 29.6123H18.4362L17.8433 30.8512H15.7815L19.676 23.1484H20.4845L24.379 30.8512H22.3038ZM19.0965 28.1983H21.0505L20.0668 26.1245L19.0965 28.1983Z" fill="white"/>
<path d="M26.9934 29.1818H30.3758V30.8381H25.0125V23.1758H27.0069V29.1818H26.9934Z" fill="white"/>
<path d="M34.1894 31.0129C33.3 31.0129 32.5588 30.784 31.939 30.3396C31.3325 29.8952 31.0091 29.2757 30.9822 28.4947H33.0035C33.0305 28.8179 33.1518 29.0603 33.3943 29.2219C33.6369 29.3835 33.8929 29.4508 34.2029 29.4508C34.4724 29.4508 34.715 29.3969 34.9306 29.2757C35.1327 29.1545 35.2405 28.9929 35.2405 28.7775C35.2405 28.6159 35.1731 28.4677 35.0384 28.3465C34.9036 28.2119 34.7554 28.1176 34.5937 28.0503C34.432 27.983 34.1759 27.8887 33.839 27.7675C33.3674 27.6059 33.0035 27.4443 32.7071 27.3096C32.4241 27.175 32.1411 26.9999 31.8851 26.8114C31.629 26.6094 31.4404 26.3939 31.3191 26.1381C31.1978 25.8822 31.1439 25.5859 31.1439 25.2358C31.1439 24.549 31.4134 24.0104 31.9524 23.6199C32.4915 23.2293 33.2192 23.0273 34.1086 23.0273C34.9575 23.0273 35.6583 23.2293 36.2242 23.6333C36.7902 24.0373 37.0867 24.6164 37.1137 25.384H35.1327C35.1058 25.1146 34.998 24.8992 34.8093 24.751C34.6206 24.6029 34.3781 24.5221 34.0951 24.5221C33.839 24.5221 33.61 24.576 33.4078 24.6837C33.2192 24.7914 33.1113 24.953 33.1113 25.1685C33.1113 25.3166 33.1787 25.4513 33.3135 25.5725C33.4482 25.6937 33.5695 25.7745 33.6773 25.8149C33.7851 25.8553 34.0142 25.9361 34.3242 26.0438C34.405 26.0707 34.4724 26.0977 34.5263 26.1111C35.0114 26.2727 35.3888 26.4209 35.6852 26.5421C35.9817 26.6767 36.2512 26.8383 36.5072 27.0268C36.7633 27.2154 36.9519 27.4443 37.0597 27.7136C37.1676 27.983 37.2215 28.2927 37.2215 28.6563C37.2215 29.37 36.9385 29.9356 36.386 30.353C35.8335 30.7974 35.1058 31.0129 34.1894 31.0129Z" fill="white"/>
<path d="M43.8111 30.8512L43.2316 29.6123H39.9435L39.3506 30.8512H37.2888L41.1833 23.1484H41.9919L45.8864 30.8512H43.8111ZM40.6173 28.1983H42.5713L41.5876 26.1245L40.6173 28.1983Z" fill="white"/>
<path d="M58.7153 30.9055V23.2432H62.0034C63.0815 23.2432 64.0113 23.6202 64.7929 24.3743C65.5745 25.1285 65.9518 26.0307 65.9518 27.0811C65.9518 28.1314 65.561 29.0337 64.7929 29.7878C64.0248 30.5419 63.095 30.919 62.0034 30.919H58.7153V30.9055ZM59.6856 30.0302H62.0034C62.8254 30.0302 63.5262 29.7474 64.1056 29.1684C64.6851 28.5893 64.9816 27.9025 64.9816 27.0945C64.9816 26.2866 64.6851 25.5998 64.1056 25.0207C63.5262 24.4417 62.8254 24.1589 62.0034 24.1589H59.6856V30.0302Z" fill="white"/>
<path d="M67.3802 30.9055V23.2432H68.3505V30.9055H67.3802Z" fill="white"/>
<path d="M77.8779 26.8518C77.8779 26.8788 77.8779 26.9326 77.8779 27C77.8779 27.0673 77.8779 27.1346 77.8779 27.175C77.8644 28.2389 77.4737 29.1546 76.6921 29.9087C75.9239 30.6628 74.9672 31.0399 73.8217 31.0399C72.7032 31.0399 71.7464 30.6493 70.9514 29.8683C70.1563 29.0872 69.7655 28.1581 69.7655 27.0673C69.7655 25.99 70.1563 25.0473 70.9514 24.2663C71.7464 23.4852 72.7032 23.0947 73.8217 23.0947C74.6437 23.0947 75.3984 23.3102 76.0722 23.7276C76.746 24.1586 77.2446 24.7107 77.5815 25.4109H76.5169C76.2339 24.9665 75.8566 24.603 75.3714 24.3471C74.8998 24.0912 74.3742 23.9566 73.8217 23.9566C72.9727 23.9566 72.245 24.2528 71.6386 24.8588C71.0322 25.4648 70.7358 26.192 70.7358 27.0404C70.7358 27.8887 71.0457 28.6294 71.6521 29.2354C72.272 29.8414 73.0132 30.1511 73.8756 30.1511C74.6572 30.1511 75.3445 29.9087 75.9105 29.4374C76.4764 28.966 76.8268 28.3601 76.9616 27.6329H73.6331V26.8518H77.8779Z" fill="white"/>
<path d="M79.2255 30.9055V23.2432H80.1957V30.9055H79.2255Z" fill="white"/>
<path d="M87.4592 23.2432V24.0646H84.818V30.9055H83.8477V24.0646H81.193V23.2432H87.4592Z" fill="white"/>
<path d="M93.5637 30.9051L92.6204 28.9525H88.4968L87.567 30.9051H86.5428L90.3295 23.2158H90.7742L94.5609 30.9051H93.5637ZM88.8337 28.2522H92.2835L90.5586 24.6567L88.8337 28.2522Z" fill="white"/>
<path d="M96.461 30.0841H100.585V30.9055H95.4907V23.2432H96.461V30.0841Z" fill="white"/>
</g>
</g>
<defs>
<clipPath id="clip0_12_1385">
<rect width="100.125" height="54" fill="white" transform="translate(0.5)"/>
</clipPath>
<clipPath id="clip1_12_1385">
<rect width="100.071" height="53.7441" fill="white" transform="translate(0.5 0.134766)"/>
</clipPath>
</defs>
</svg>
